<?xml version="1.0" standalone="no"?>
<!DOCTYPE svg PUBLIC "-//W3C//DTD SVG 20010904//EN"
 "http://www.w3.org/TR/2001/REC-SVG-20010904/DTD/svg10.dtd">
<svg version="1.0" xmlns="http://www.w3.org/2000/svg"
 width="180.000000pt" height="180.000000pt" viewBox="0 0 180.000000 180.000000"
 preserveAspectRatio="xMidYMid meet">
<metadata>
Created by potrace 1.14, written by Peter Selinger 2001-2017
</metadata>
<g transform="translate(0.000000,180.000000) scale(0.100000,-0.100000)"
fill="#000000" stroke="none">
<path d="M675 1781 c-88 -25 -150 -62 -245 -148 -209 -187 -310 -236 -384
-188 -19 13 -30 15 -37 8 -16 -16 5 -50 41 -68 83 -43 199 -11 335 93 274 210
269 207 385 207 72 0 93 -4 141 -28 53 -25 149 -100 149 -115 0 -4 -28 -15
-63 -25 -87 -26 -156 -68 -230 -141 -100 -97 -156 -215 -172 -359 -4 -28 -17
-66 -31 -87 -62 -94 -66 -210 -9 -300 31 -48 63 -76 124 -108 43 -22 59 -38
83 -81 16 -30 42 -73 59 -97 16 -23 29 -45 29 -47 0 -2 -17 -7 -37 -10 -64
-10 -85 -16 -109 -32 -21 -14 -36 -43 -16 -33 49 26 91 39 132 43 42 3 54 0
70 -18 l20 -21 -45 -17 c-54 -20 -135 -84 -135 -105 0 -10 17 -1 48 25 26 22
68 49 94 60 40 17 48 18 59 5 9 -11 6 -18 -15 -35 -30 -24 -60 -78 -71 -129
-7 -30 -6 -33 7 -22 9 7 18 27 22 44 8 38 49 94 76 103 14 5 32 -4 61 -29 44
-37 114 -66 161 -66 34 0 112 38 156 75 22 18 38 24 52 20 28 -9 66 -62 81
-112 14 -50 34 -58 24 -10 -11 48 -41 102 -70 125 -58 46 -7 57 71 16 27 -14
64 -40 82 -57 28 -26 33 -28 30 -12 -4 24 -91 91 -141 108 -35 11 -37 14 -23
32 20 27 109 25 168 -4 48 -24 64 -19 28 9 -22 17 -77 33 -143 42 -18 3 -17 5
3 28 11 13 44 64 72 112 28 48 57 88 65 88 16 0 78 44 106 75 59 66 79 168 53
259 -9 30 -23 61 -31 70 -9 8 -17 42 -20 83 -19 244 -181 446 -415 514 -66 19
-84 28 -96 50 -36 70 -158 161 -269 200 -80 28 -202 33 -280 10z"/>
</g>
</svg>
